<mxfile host="app.diagrams.net" modified="2023-04-18T07:52:06.887Z" agent="Mozilla/5.0 (Windows NT 10.0; Win64; x64) AppleWebKit/537.36 (KHTML, like Gecko) Chrome/112.0.0.0 Safari/537.36" version="21.1.6" etag="9PiUTwRTxJxN-sAlAWpl" type="github">
  <diagram name="Page-1" id="ElQPL2IR4khZvtOX_0Ok">
    <mxGraphModel>
      <root>
        <mxCell id="0" />
        <mxCell id="1" parent="0" />
        <mxCell id="2" value="Start" style="whiteSpace=wrap;strokeWidth=2;" vertex="1" parent="1">
          <mxGeometry x="142" width="51" height="34" as="geometry" />
        </mxCell>
        <mxCell id="3" value="Search" style="rounded=1;absoluteArcSize=1;arcSize=14;whiteSpace=wrap;strokeWidth=2;" vertex="1" parent="1">
          <mxGeometry x="136" y="103" width="63" height="34" as="geometry" />
        </mxCell>
        <mxCell id="4" value="Found" style="whiteSpace=wrap;strokeWidth=2;" vertex="1" parent="1">
          <mxGeometry x="31" y="206" width="58" height="34" as="geometry" />
        </mxCell>
        <mxCell id="5" value="Not Found" style="whiteSpace=wrap;strokeWidth=2;" vertex="1" parent="1">
          <mxGeometry x="231" y="206" width="88" height="34" as="geometry" />
        </mxCell>
        <mxCell id="6" value="Display Results" style="whiteSpace=wrap;strokeWidth=2;" vertex="1" parent="1">
          <mxGeometry y="290" width="121" height="34" as="geometry" />
        </mxCell>
        <mxCell id="7" value="Display Not Found Message" style="whiteSpace=wrap;strokeWidth=2;" vertex="1" parent="1">
          <mxGeometry x="171" y="290" width="207" height="34" as="geometry" />
        </mxCell>
        <mxCell id="8" value="Finish" style="whiteSpace=wrap;strokeWidth=2;" vertex="1" parent="1">
          <mxGeometry x="139" y="374" width="57" height="34" as="geometry" />
        </mxCell>
        <mxCell id="9" value="Input query" style="curved=1;startArrow=none;endArrow=block;exitX=0.5051700367647058;exitY=1;entryX=0.5041852678571429;entryY=0;" edge="1" parent="1" source="2" target="3">
          <mxGeometry relative="1" as="geometry">
            <Array as="points" />
          </mxGeometry>
        </mxCell>
        <mxCell id="10" value="Query matches" style="curved=1;startArrow=none;endArrow=block;exitX=0.00443328373015873;exitY=0.9451687145349856;entryX=0.5109779094827587;entryY=0;" edge="1" parent="1" source="3" target="4">
          <mxGeometry relative="1" as="geometry">
            <Array as="points">
              <mxPoint x="61" y="172" />
            </Array>
          </mxGeometry>
        </mxCell>
        <mxCell id="11" value="No matches" style="curved=1;startArrow=none;endArrow=block;exitX=1.003937251984127;exitY=0.9451687145349856;entryX=0.4987571022727273;entryY=0;" edge="1" parent="1" source="3" target="5">
          <mxGeometry relative="1" as="geometry">
            <Array as="points">
              <mxPoint x="275" y="172" />
            </Array>
          </mxGeometry>
        </mxCell>
        <mxCell id="12" value="" style="curved=1;startArrow=none;endArrow=block;exitX=0.5109779094827587;exitY=1;entryX=0.5011299070247934;entryY=0;" edge="1" parent="1" source="4" target="6">
          <mxGeometry relative="1" as="geometry">
            <Array as="points" />
          </mxGeometry>
        </mxCell>
        <mxCell id="13" value="" style="curved=1;startArrow=none;endArrow=block;exitX=0.4987571022727273;exitY=1;entryX=0.501887077294686;entryY=0;" edge="1" parent="1" source="5" target="7">
          <mxGeometry relative="1" as="geometry">
            <Array as="points" />
          </mxGeometry>
        </mxCell>
        <mxCell id="14" value="" style="curved=1;startArrow=none;endArrow=block;exitX=0.5011299070247934;exitY=1;entryX=0.006887335526315789;entryY=0.17284941652644145;" edge="1" parent="1" source="6" target="8">
          <mxGeometry relative="1" as="geometry">
            <Array as="points">
              <mxPoint x="61" y="349" />
            </Array>
          </mxGeometry>
        </mxCell>
        <mxCell id="15" value="" style="curved=1;startArrow=none;endArrow=block;exitX=0.501887077294686;exitY=1;entryX=1.0023643092105263;entryY=0.17284941652644145;" edge="1" parent="1" source="7" target="8">
          <mxGeometry relative="1" as="geometry">
            <Array as="points">
              <mxPoint x="275" y="349" />
            </Array>
          </mxGeometry>
        </mxCell>
      </root>
    </mxGraphModel>
  </diagram>
</mxfile>
